<svg xmlns="http://www.w3.org/2000/svg" width="77.619" height="77.619" viewBox="0 0 77.619 77.619">
  <path id="instagram" d="M61.534,15.428h0a4.657,4.657,0,1,0,4.657,4.657A4.657,4.657,0,0,0,61.534,15.428ZM79.386,24.82A29.456,29.456,0,0,0,77.6,15.389,19.172,19.172,0,0,0,73.1,8.52,18.24,18.24,0,0,0,66.23,4.057,28.331,28.331,0,0,0,56.8,2.233C52.685,2,51.366,2,40.809,2S28.934,2,24.82,2.233a28.331,28.331,0,0,0-9.431,1.824A18.551,18.551,0,0,0,8.52,8.52a18.24,18.24,0,0,0-4.463,6.869A28.331,28.331,0,0,0,2.233,24.82C2,28.934,2,30.253,2,40.809S2,52.685,2.233,56.8A28.331,28.331,0,0,0,4.057,66.23,18.24,18.24,0,0,0,8.52,73.1a18.551,18.551,0,0,0,6.869,4.463,28.331,28.331,0,0,0,9.431,1.824c4.114.233,5.433.233,15.989.233s11.876,0,15.989-.233a28.331,28.331,0,0,0,9.431-1.824A18.24,18.24,0,0,0,73.1,73.1a18.822,18.822,0,0,0,4.5-6.869A29.457,29.457,0,0,0,79.386,56.8c0-4.114.233-5.433.233-15.989S79.619,28.934,79.386,24.82ZM72.4,56.333a21.772,21.772,0,0,1-1.32,7.219,11.876,11.876,0,0,1-2.911,4.463,12.38,12.38,0,0,1-4.463,2.911,21.772,21.772,0,0,1-7.219,1.32c-3.881.194-5.317.233-15.524.233s-11.643,0-15.524-.233a22.238,22.238,0,0,1-7.529-1.164,12.691,12.691,0,0,1-4.269-2.911,11.643,11.643,0,0,1-2.872-4.463,21.5,21.5,0,0,1-1.552-7.374c0-3.881-.233-5.317-.233-15.524s0-11.643.233-15.524a21.5,21.5,0,0,1,1.358-7.374,11.643,11.643,0,0,1,3.066-4.269,12.186,12.186,0,0,1,4.269-3.1,22.238,22.238,0,0,1,7.374-1.32c3.881,0,5.317-.233,15.524-.233s11.643,0,15.524.233a21.772,21.772,0,0,1,7.219,1.32,11.876,11.876,0,0,1,4.618,3.1,11.876,11.876,0,0,1,2.911,4.269,21.772,21.772,0,0,1,1.32,7.374c.194,3.881.233,5.317.233,15.524S72.594,52.452,72.4,56.333ZM40.809,20.9a19.87,19.87,0,1,0,14.114,5.806A19.909,19.909,0,0,0,40.809,20.9Zm0,32.833A12.924,12.924,0,1,1,53.733,40.809,12.924,12.924,0,0,1,40.809,53.733Z" transform="translate(-2 -2)" fill="#fafafa"/>
</svg>
