<svg xmlns="http://www.w3.org/2000/svg" xmlns:xlink="http://www.w3.org/1999/xlink" width="500" zoomAndPan="magnify" viewBox="0 0 375 374.999991" height="500" preserveAspectRatio="xMidYMid meet" version="1.0"><defs><g/><clipPath id="id1"><path d="M 35.445312 139.015625 L 87.195312 139.015625 L 87.195312 235.765625 L 35.445312 235.765625 Z M 35.445312 139.015625 " clip-rule="nonzero"/></clipPath></defs><g fill="#7851a9" fill-opacity="1"><g transform="translate(104.210443, 213.601775)"><g><path d="M 4.90625 -46.109375 L 16.109375 -46.109375 L 16.109375 -27.4375 L 33.046875 -27.4375 L 33.046875 -46.109375 L 44.171875 -46.109375 L 44.171875 0 L 33.046875 0 L 33.046875 -18.3125 L 16.109375 -18.3125 L 16.109375 0 L 4.90625 0 Z M 4.90625 -46.109375 "/></g></g></g><g fill="#7851a9" fill-opacity="1"><g transform="translate(151.208358, 213.601775)"><g><path d="M 19.84375 -36.015625 C 23.664062 -36.015625 27.144531 -35.125 30.28125 -33.34375 C 33.414062 -31.570312 34.984375 -28.382812 34.984375 -23.78125 L 34.90625 -7.265625 C 34.863281 -4.359375 33.410156 -2.25 30.546875 -0.9375 C 27.691406 0.375 23.523438 1.03125 18.046875 1.03125 C 7.816406 1.03125 2.703125 -2.953125 2.703125 -10.921875 C 2.703125 -14.285156 3.75 -16.910156 5.84375 -18.796875 C 7.9375 -20.691406 11.054688 -21.640625 15.203125 -21.640625 C 16.910156 -21.640625 18.613281 -21.421875 20.3125 -20.984375 C 22.019531 -20.546875 23.5 -19.976562 24.75 -19.28125 L 24.75 -21.5 C 24.75 -25.507812 22.164062 -27.515625 17 -27.515625 C 15.019531 -27.515625 12.976562 -27.15625 10.875 -26.4375 C 8.78125 -25.726562 7.113281 -24.863281 5.875 -23.84375 L 5.875 -32.96875 C 7.113281 -33.800781 9.015625 -34.515625 11.578125 -35.109375 C 14.140625 -35.710938 16.894531 -36.015625 19.84375 -36.015625 Z M 18.390625 -6.21875 C 20.785156 -6.21875 22.441406 -6.378906 23.359375 -6.703125 C 24.285156 -7.023438 24.75 -7.671875 24.75 -8.640625 L 24.75 -14.03125 C 23.132812 -14.582031 21.359375 -14.859375 19.421875 -14.859375 C 17.160156 -14.859375 15.507812 -14.523438 14.46875 -13.859375 C 13.4375 -13.191406 12.921875 -12.144531 12.921875 -10.71875 C 12.921875 -9.375 13.460938 -8.285156 14.546875 -7.453125 C 15.628906 -6.628906 16.910156 -6.21875 18.390625 -6.21875 Z M 18.390625 -6.21875 "/></g></g></g><g fill="#7851a9" fill-opacity="1"><g transform="translate(188.668414, 213.601775)"><g><path d="M 23.15625 -35.9375 C 28.269531 -35.9375 32.1875 -34.367188 34.90625 -31.234375 C 37.625 -28.109375 38.984375 -23.570312 38.984375 -17.625 C 38.941406 -5.1875 32.8125 1.03125 20.59375 1.03125 C 9.90625 1.03125 4.5625 -2.007812 4.5625 -8.09375 L 4.5625 -47.90625 L 14.65625 -47.90625 L 14.65625 -33.734375 C 15.894531 -34.472656 17.3125 -35.023438 18.90625 -35.390625 C 20.5 -35.753906 21.914062 -35.9375 23.15625 -35.9375 Z M 20.46875 -7.53125 C 25.945312 -7.53125 28.6875 -10.6875 28.6875 -17 C 28.6875 -24.144531 26.015625 -27.71875 20.671875 -27.71875 C 19.703125 -27.71875 18.664062 -27.585938 17.5625 -27.328125 C 16.457031 -27.078125 15.488281 -26.722656 14.65625 -26.265625 L 14.65625 -10.78125 C 14.65625 -8.613281 16.59375 -7.53125 20.46875 -7.53125 Z M 20.46875 -7.53125 "/></g></g></g><g fill="#7851a9" fill-opacity="1"><g transform="translate(228.132808, 213.601775)"><g><path d="M 4.5625 -47.703125 L 15.203125 -47.703125 L 15.203125 -39.75 L 4.5625 -39.75 Z M 4.765625 -34.5 L 15.0625 -34.5 L 15.140625 0 L 4.765625 0 Z M 4.765625 -34.5 "/></g></g></g><g fill="#7851a9" fill-opacity="1"><g transform="translate(245.826004, 213.601775)"><g><path d="M 18.875 1.375 C 14.863281 1.375 11.851562 0.429688 9.84375 -1.453125 C 7.84375 -3.335938 6.84375 -6.054688 6.84375 -9.609375 L 6.84375 -27.09375 L 1.734375 -27.09375 L 1.734375 -34.984375 L 6.84375 -34.984375 L 6.84375 -44.578125 L 17.625 -44.578125 L 17.625 -34.984375 L 25.296875 -34.984375 L 25.296875 -27.09375 L 17.625 -27.09375 L 17.625 -10.921875 C 17.625 -9.722656 17.875 -8.832031 18.375 -8.25 C 18.882812 -7.675781 19.738281 -7.390625 20.9375 -7.390625 C 21.675781 -7.390625 22.4375 -7.515625 23.21875 -7.765625 C 24.007812 -8.023438 24.703125 -8.382812 25.296875 -8.84375 L 25.296875 -0.0625 C 23.546875 0.894531 21.40625 1.375 18.875 1.375 Z M 18.875 1.375 "/></g></g></g><g fill="#7851a9" fill-opacity="1"><g transform="translate(272.296791, 213.601775)"><g><path d="M 4.5625 -31.3125 C 5.25 -31.914062 6.457031 -32.582031 8.1875 -33.3125 C 9.914062 -34.050781 11.851562 -34.6875 14 -35.21875 C 16.144531 -35.75 18.207031 -36.015625 20.1875 -36.015625 C 24.007812 -36.015625 26.660156 -35.4375 28.140625 -34.28125 L 28.140625 -26.75 C 26.296875 -27.164062 23.644531 -27.375 20.1875 -27.375 C 18.019531 -27.375 16.242188 -27.257812 14.859375 -27.03125 L 14.859375 0 L 4.5625 0 Z M 4.5625 -31.3125 "/></g></g></g><g fill="#7851a9" fill-opacity="1"><g transform="translate(299.804309, 213.601775)"><g><path d="M 20.328125 1.03125 C 14.421875 1.03125 9.992188 -0.53125 7.046875 -3.65625 C 4.097656 -6.789062 2.625 -11.445312 2.625 -17.625 C 2.625 -24.070312 4.085938 -28.769531 7.015625 -31.71875 C 9.941406 -34.675781 14.378906 -36.15625 20.328125 -36.15625 C 26.265625 -36.15625 30.726562 -34.644531 33.71875 -31.625 C 36.71875 -28.601562 38.21875 -23.9375 38.21875 -17.625 C 38.21875 -11.539062 36.675781 -6.910156 33.59375 -3.734375 C 30.507812 -0.554688 26.085938 1.03125 20.328125 1.03125 Z M 20.328125 -7.1875 C 22.859375 -7.1875 24.769531 -8.070312 26.0625 -9.84375 C 27.351562 -11.625 28 -14.21875 28 -17.625 C 28 -21.351562 27.363281 -24.015625 26.09375 -25.609375 C 24.820312 -27.203125 22.898438 -28 20.328125 -28 C 17.648438 -28 15.722656 -27.203125 14.546875 -25.609375 C 13.367188 -24.015625 12.78125 -21.351562 12.78125 -17.625 C 12.78125 -14.070312 13.390625 -11.441406 14.609375 -9.734375 C 15.835938 -8.035156 17.742188 -7.1875 20.328125 -7.1875 Z M 20.328125 -7.1875 "/></g></g></g><g clip-path="url(#id1)"><path fill="#82a951" d="M 57.257812 191.230469 L 65.363281 191.230469 L 65.363281 235.765625 L 35.460938 218.914062 L 35.460938 156.382812 L 51.121094 165.097656 L 51.121094 173.507812 L 43.574219 169.234375 L 43.574219 214.242188 L 57.261719 221.957031 Z M 57.277344 139.015625 L 57.277344 183.550781 L 65.382812 183.550781 L 65.382812 152.824219 L 79.074219 160.535156 L 79.074219 205.542969 L 71.523438 201.269531 L 71.523438 209.679688 L 87.183594 218.394531 L 87.183594 155.867188 Z M 57.277344 139.015625 " fill-opacity="1" fill-rule="nonzero"/></g></svg>