<svg xmlns="http://www.w3.org/2000/svg" width="34" height="34" viewBox="0 0 34 34"><g transform="translate(34 34) rotate(180)"><path d="M0,0H34V34H0Z" fill="none"/><path d="M24.25,21.947a4.125,4.125,0,0,0-2.777,1.091l-10.1-5.879a4.638,4.638,0,0,0,.128-.992,4.638,4.638,0,0,0-.128-.992L21.36,9.352A4.24,4.24,0,1,0,20,6.25a4.637,4.637,0,0,0,.128.992L10.14,13.064a4.25,4.25,0,1,0,0,6.2l10.087,5.893a4,4,0,0,0-.113.921,4.137,4.137,0,1,0,4.137-4.137Z" transform="translate(1.25 0.833)" fill="#fff"/></g></svg>